<?xml version="1.0" encoding="UTF-8"?>
<svg xmlns="http://www.w3.org/2000/svg" style="display:none">
  <!-- icons follow the Phosphor regular geometry; stroke 1.6, line caps round -->

  <symbol id="i-car" viewBox="0 0 24 24" fill="none" stroke="currentColor" stroke-width="1.6" stroke-linecap="round" stroke-linejoin="round">
    <path d="M3 12h18l-2-5a3 3 0 0 0-3-2H8a3 3 0 0 0-3 2l-2 5z"/>
    <path d="M3 12v5a1 1 0 0 0 1 1h2a1 1 0 0 0 1-1v-1h10v1a1 1 0 0 0 1 1h2a1 1 0 0 0 1-1v-5"/>
    <circle cx="7.5" cy="14.5" r="1.25" fill="currentColor"/>
    <circle cx="16.5" cy="14.5" r="1.25" fill="currentColor"/>
  </symbol>

  <symbol id="i-plus" viewBox="0 0 24 24" fill="none" stroke="currentColor" stroke-width="1.8" stroke-linecap="round">
    <path d="M12 5v14M5 12h14"/>
  </symbol>

  <symbol id="i-x" viewBox="0 0 24 24" fill="none" stroke="currentColor" stroke-width="1.8" stroke-linecap="round">
    <path d="M6 6l12 12M18 6L6 18"/>
  </symbol>

  <symbol id="i-caret-down" viewBox="0 0 24 24" fill="none" stroke="currentColor" stroke-width="1.8" stroke-linecap="round" stroke-linejoin="round">
    <path d="M6 9l6 6 6-6"/>
  </symbol>

  <symbol id="i-caret-up" viewBox="0 0 24 24" fill="none" stroke="currentColor" stroke-width="1.8" stroke-linecap="round" stroke-linejoin="round">
    <path d="M6 15l6-6 6 6"/>
  </symbol>

  <symbol id="i-caret-right" viewBox="0 0 24 24" fill="none" stroke="currentColor" stroke-width="1.8" stroke-linecap="round" stroke-linejoin="round">
    <path d="M9 6l6 6-6 6"/>
  </symbol>

  <symbol id="i-caret-left" viewBox="0 0 24 24" fill="none" stroke="currentColor" stroke-width="1.8" stroke-linecap="round" stroke-linejoin="round">
    <path d="M15 6l-6 6 6 6"/>
  </symbol>

  <symbol id="i-arrow-right" viewBox="0 0 24 24" fill="none" stroke="currentColor" stroke-width="1.6" stroke-linecap="round" stroke-linejoin="round">
    <path d="M5 12h14M13 6l6 6-6 6"/>
  </symbol>

  <symbol id="i-arrow-up-right" viewBox="0 0 24 24" fill="none" stroke="currentColor" stroke-width="1.6" stroke-linecap="round" stroke-linejoin="round">
    <path d="M7 17L17 7M9 7h8v8"/>
  </symbol>

  <symbol id="i-map-pin" viewBox="0 0 24 24" fill="none" stroke="currentColor" stroke-width="1.6" stroke-linecap="round" stroke-linejoin="round">
    <path d="M12 22s7-7.2 7-12a7 7 0 1 0-14 0c0 4.8 7 12 7 12z"/>
    <circle cx="12" cy="10" r="2.5"/>
  </symbol>

  <symbol id="i-heart" viewBox="0 0 24 24" fill="none" stroke="currentColor" stroke-width="1.6" stroke-linecap="round" stroke-linejoin="round">
    <path d="M12 20s-7-4.5-7-10a4 4 0 0 1 7-2.5A4 4 0 0 1 19 10c0 5.5-7 10-7 10z"/>
  </symbol>

  <symbol id="i-chat" viewBox="0 0 24 24" fill="none" stroke="currentColor" stroke-width="1.6" stroke-linecap="round" stroke-linejoin="round">
    <path d="M4 12a8 8 0 1 1 3.5 6.6L4 19l.6-3A8 8 0 0 1 4 12z"/>
  </symbol>

  <symbol id="i-share" viewBox="0 0 24 24" fill="none" stroke="currentColor" stroke-width="1.6" stroke-linecap="round" stroke-linejoin="round">
    <circle cx="6" cy="12" r="2.5"/>
    <circle cx="18" cy="6" r="2.5"/>
    <circle cx="18" cy="18" r="2.5"/>
    <path d="M8.2 11l7.6-3.6M8.2 13l7.6 3.6"/>
  </symbol>

  <symbol id="i-paper-plane" viewBox="0 0 24 24" fill="none" stroke="currentColor" stroke-width="1.6" stroke-linecap="round" stroke-linejoin="round">
    <path d="M22 2L11 13M22 2l-7 20-4-9-9-4 20-7z"/>
  </symbol>

  <symbol id="i-paperclip" viewBox="0 0 24 24" fill="none" stroke="currentColor" stroke-width="1.6" stroke-linecap="round" stroke-linejoin="round">
    <path d="M21 12.5l-9 9a5 5 0 1 1-7-7L14 5.5a3 3 0 1 1 4 4L9.5 18a1 1 0 1 1-1.5-1.5L16 8.5"/>
  </symbol>

  <symbol id="i-smiley" viewBox="0 0 24 24" fill="none" stroke="currentColor" stroke-width="1.6" stroke-linecap="round" stroke-linejoin="round">
    <circle cx="12" cy="12" r="9"/>
    <circle cx="9" cy="10" r="0.8" fill="currentColor"/>
    <circle cx="15" cy="10" r="0.8" fill="currentColor"/>
    <path d="M8.5 14.5a4 4 0 0 0 7 0"/>
  </symbol>

  <symbol id="i-magnifier" viewBox="0 0 24 24" fill="none" stroke="currentColor" stroke-width="1.6" stroke-linecap="round" stroke-linejoin="round">
    <circle cx="11" cy="11" r="6.5"/>
    <path d="M20 20l-4-4"/>
  </symbol>

  <symbol id="i-eye" viewBox="0 0 24 24" fill="none" stroke="currentColor" stroke-width="1.6" stroke-linecap="round" stroke-linejoin="round">
    <path d="M2 12s4-7 10-7 10 7 10 7-4 7-10 7S2 12 2 12z"/>
    <circle cx="12" cy="12" r="3"/>
  </symbol>

  <symbol id="i-check" viewBox="0 0 24 24" fill="none" stroke="currentColor" stroke-width="1.8" stroke-linecap="round" stroke-linejoin="round">
    <path d="M5 12l5 5L20 7"/>
  </symbol>

  <symbol id="i-check-circle" viewBox="0 0 24 24" fill="none" stroke="currentColor" stroke-width="1.6" stroke-linecap="round" stroke-linejoin="round">
    <circle cx="12" cy="12" r="9"/>
    <path d="M8 12l3 3 5-6"/>
  </symbol>

  <symbol id="i-checks" viewBox="0 0 24 24" fill="none" stroke="currentColor" stroke-width="1.6" stroke-linecap="round" stroke-linejoin="round">
    <path d="M2 13l4 4L14 9"/>
    <path d="M10 17l8-8"/>
  </symbol>

  <symbol id="i-x-circle" viewBox="0 0 24 24" fill="none" stroke="currentColor" stroke-width="1.6" stroke-linecap="round" stroke-linejoin="round">
    <circle cx="12" cy="12" r="9"/>
    <path d="M9 9l6 6M15 9l-6 6"/>
  </symbol>

  <symbol id="i-warning" viewBox="0 0 24 24" fill="none" stroke="currentColor" stroke-width="1.6" stroke-linecap="round" stroke-linejoin="round">
    <path d="M12 3l10 18H2L12 3z"/>
    <path d="M12 10v5M12 18v.01"/>
  </symbol>

  <symbol id="i-info" viewBox="0 0 24 24" fill="none" stroke="currentColor" stroke-width="1.6" stroke-linecap="round" stroke-linejoin="round">
    <circle cx="12" cy="12" r="9"/>
    <path d="M12 8v0M12 11v6"/>
  </symbol>

  <symbol id="i-lightbulb" viewBox="0 0 24 24" fill="none" stroke="currentColor" stroke-width="1.6" stroke-linecap="round" stroke-linejoin="round">
    <path d="M9 18h6M10 21h4M9 14a5 5 0 1 1 6 0c-1 .8-1.5 1.5-1.5 3h-3c0-1.5-.5-2.2-1.5-3z"/>
  </symbol>

  <symbol id="i-funnel" viewBox="0 0 24 24" fill="none" stroke="currentColor" stroke-width="1.6" stroke-linecap="round" stroke-linejoin="round">
    <path d="M3 5h18l-7 9v6l-4-2v-4L3 5z"/>
  </symbol>

  <symbol id="i-phone" viewBox="0 0 24 24" fill="none" stroke="currentColor" stroke-width="1.6" stroke-linecap="round" stroke-linejoin="round">
    <path d="M5 4h4l2 5-3 2a11 11 0 0 0 5 5l2-3 5 2v4a2 2 0 0 1-2 2C9 21 3 15 3 6a2 2 0 0 1 2-2z"/>
  </symbol>

  <symbol id="i-star" viewBox="0 0 24 24" fill="none" stroke="currentColor" stroke-width="1.4" stroke-linejoin="round">
    <path d="M12 3l2.9 6.1L21 10l-5 4.6L17.4 21 12 17.7 6.6 21 8 14.6 3 10l6.1-.9L12 3z"/>
  </symbol>

  <symbol id="i-star-fill" viewBox="0 0 24 24" fill="currentColor">
    <path d="M12 3l2.9 6.1L21 10l-5 4.6L17.4 21 12 17.7 6.6 21 8 14.6 3 10l6.1-.9L12 3z"/>
  </symbol>

  <symbol id="i-cloud-upload" viewBox="0 0 24 24" fill="none" stroke="currentColor" stroke-width="1.6" stroke-linecap="round" stroke-linejoin="round">
    <path d="M7 18a5 5 0 1 1 1-9.9 6 6 0 0 1 11.8 1.4A4 4 0 0 1 19 18"/>
    <path d="M12 12v7M9 15l3-3 3 3"/>
  </symbol>

  <symbol id="i-dots" viewBox="0 0 24 24" fill="currentColor">
    <circle cx="6" cy="12" r="1.6"/>
    <circle cx="12" cy="12" r="1.6"/>
    <circle cx="18" cy="12" r="1.6"/>
  </symbol>

  <symbol id="i-trend-up" viewBox="0 0 24 24" fill="none" stroke="currentColor" stroke-width="1.6" stroke-linecap="round" stroke-linejoin="round">
    <path d="M3 17l6-6 4 4 8-8M14 7h7v7"/>
  </symbol>

  <symbol id="i-image" viewBox="0 0 24 24" fill="none" stroke="currentColor" stroke-width="1.6" stroke-linecap="round" stroke-linejoin="round">
    <rect x="3" y="4" width="18" height="16" rx="2"/>
    <circle cx="9" cy="10" r="1.5"/>
    <path d="M21 16l-5-5-9 9"/>
  </symbol>

  <symbol id="i-sign-out" viewBox="0 0 24 24" fill="none" stroke="currentColor" stroke-width="1.6" stroke-linecap="round" stroke-linejoin="round">
    <path d="M9 21H5a2 2 0 0 1-2-2V5a2 2 0 0 1 2-2h4"/>
    <path d="M16 17l5-5-5-5"/>
    <path d="M21 12H9"/>
  </symbol>
</svg>
